<svg width="1469" height="1515" viewBox="0 0 1469 1515" fill="none" xmlns="http://www.w3.org/2000/svg">
<path d="M835 601C1054.81 601 1233 779.191 1233 999H835V601Z" fill="white"/>
<path d="M835 601.046C617.957 604.253 443 781.194 443 999H237V0H835V601.046Z" fill="white"/>
<path d="M192.478 1222.45H208.415V1338.02C208.415 1349.9 205.631 1360.52 200.063 1369.9C194.495 1379.22 186.739 1386.57 176.796 1391.97C166.91 1397.31 155.404 1399.98 142.279 1399.98C129.211 1399.98 117.705 1397.28 107.762 1391.89C97.8189 1386.49 90.0632 1379.13 84.495 1369.81C78.9268 1360.49 76.1428 1349.9 76.1428 1338.02V1222.45H92.0803V1336.91C92.0803 1346.18 94.1541 1354.44 98.3018 1361.72C102.45 1368.93 108.273 1374.61 115.773 1378.76C123.33 1382.91 132.165 1384.98 142.279 1384.98C152.393 1384.98 161.228 1382.91 168.785 1378.76C176.342 1374.61 182.165 1368.93 186.256 1361.72C190.404 1354.44 192.478 1346.18 192.478 1336.91V1222.45ZM324.337 1397V1222.45H380.672C393.058 1222.45 403.399 1224.7 411.694 1229.19C420.047 1233.62 426.325 1239.78 430.53 1247.68C434.791 1255.52 436.922 1264.53 436.922 1274.7C436.922 1284.87 434.791 1293.85 430.53 1301.63C426.325 1309.41 420.075 1315.49 411.78 1319.87C403.484 1324.24 393.2 1326.43 380.927 1326.43H332.944V1311.86H380.501C389.592 1311.86 397.149 1310.35 403.172 1307.34C409.251 1304.33 413.768 1300.04 416.723 1294.47C419.734 1288.9 421.24 1282.31 421.24 1274.7C421.24 1267.09 419.734 1260.44 416.723 1254.76C413.712 1249.02 409.166 1244.59 403.087 1241.46C397.064 1238.34 389.45 1236.77 380.246 1236.77H340.274V1397H324.337ZM401.297 1318.25L444.251 1397H425.842L383.314 1318.25H401.297ZM545.343 1397V1222.45H646.337V1236.77H561.28V1302.48H638.411V1316.8H561.28V1397H545.343ZM898.664 1309.73C898.664 1327.91 895.426 1343.73 888.948 1357.2C882.471 1370.61 873.551 1381.01 862.187 1388.39C850.88 1395.72 837.869 1399.39 823.153 1399.39C808.437 1399.39 795.397 1395.72 784.034 1388.39C772.727 1381.01 763.835 1370.61 757.358 1357.2C750.937 1343.73 747.727 1327.91 747.727 1309.73C747.727 1291.55 750.937 1275.75 757.358 1262.34C763.835 1248.87 772.755 1238.48 784.119 1231.15C795.483 1223.76 808.494 1220.07 823.153 1220.07C837.869 1220.07 850.88 1223.76 862.187 1231.15C873.551 1238.48 882.471 1248.87 888.948 1262.34C895.426 1275.75 898.664 1291.55 898.664 1309.73ZM883.153 1309.73C883.153 1294.1 880.539 1280.72 875.312 1269.59C870.085 1258.39 862.954 1249.84 853.92 1243.93C844.886 1238.02 834.63 1235.07 823.153 1235.07C811.733 1235.07 801.505 1238.02 792.471 1243.93C783.437 1249.84 776.278 1258.36 770.994 1269.5C765.767 1280.64 763.153 1294.05 763.153 1309.73C763.153 1325.35 765.767 1338.73 770.994 1349.87C776.221 1361.01 783.352 1369.56 792.386 1375.52C801.42 1381.43 811.676 1384.39 823.153 1384.39C834.63 1384.39 844.886 1381.43 853.92 1375.52C863.011 1369.61 870.17 1361.09 875.397 1349.95C880.625 1338.76 883.21 1325.35 883.153 1309.73ZM1006.81 1397V1222.45H1063.14C1075.53 1222.45 1085.87 1224.7 1094.17 1229.19C1102.52 1233.62 1108.8 1239.78 1113 1247.68C1117.26 1255.52 1119.39 1264.53 1119.39 1274.7C1119.39 1284.87 1117.26 1293.85 1113 1301.63C1108.8 1309.41 1102.55 1315.49 1094.25 1319.87C1085.96 1324.24 1075.67 1326.43 1063.4 1326.43H1015.42V1311.86H1062.97C1072.06 1311.86 1079.62 1310.35 1085.64 1307.34C1091.72 1304.33 1096.24 1300.04 1099.19 1294.47C1102.21 1288.9 1103.71 1282.31 1103.71 1274.7C1103.71 1267.09 1102.21 1260.44 1099.19 1254.76C1096.18 1249.02 1091.64 1244.59 1085.56 1241.46C1079.54 1238.34 1071.92 1236.77 1062.72 1236.77H1022.75V1397H1006.81ZM1083.77 1318.25L1126.72 1397H1108.31L1065.79 1318.25H1083.77ZM1227.81 1222.45H1246.22L1309.55 1374.5H1311.08L1374.41 1222.45H1392.81V1397H1377.81V1256.12H1376.45L1317.56 1397H1303.07L1244.18 1256.12H1242.81V1397H1227.81V1222.45Z" fill="white"/>
</svg>
