<svg xmlns="http://www.w3.org/2000/svg" xmlns:xlink="http://www.w3.org/1999/xlink" width="2000" zoomAndPan="magnify" viewBox="0 0 1500 1499.999933" height="2000" preserveAspectRatio="xMidYMid meet" version="1.0"><defs><g/><clipPath id="f6615a9866"><path d="M 373.589844 261.925781 L 823.589844 261.925781 L 823.589844 1011.222656 L 373.589844 1011.222656 Z M 373.589844 261.925781 " clip-rule="nonzero"/></clipPath><clipPath id="96ac700ac5"><path d="M 0.589844 0.925781 L 450.589844 0.925781 L 450.589844 750 L 0.589844 750 Z M 0.589844 0.925781 " clip-rule="nonzero"/></clipPath><clipPath id="99db0eefb6"><rect x="0" width="451" y="0" height="751"/></clipPath><clipPath id="8e9696cb41"><path d="M 528.835938 718 L 823.585938 718 L 823.585938 1012.714844 L 528.835938 1012.714844 Z M 528.835938 718 " clip-rule="nonzero"/></clipPath><clipPath id="f2e903a713"><path d="M 823.402344 718 L 1126.402344 718 L 1126.402344 1012.714844 L 823.402344 1012.714844 Z M 823.402344 718 " clip-rule="nonzero"/></clipPath></defs><g clip-path="url(#f6615a9866)"><g transform="matrix(1, 0, 0, 1, 373, 261)"><g clip-path="url(#99db0eefb6)"><g clip-path="url(#96ac700ac5)"><path fill="#181818" d="M 0.589844 0.925781 L 450.589844 0.925781 L 450.589844 749.753906 L 0.589844 749.753906 Z M 0.589844 0.925781 " fill-opacity="1" fill-rule="nonzero"/></g></g></g></g><g clip-path="url(#8e9696cb41)"><path fill="#ffffff" d="M 528.597656 1012.714844 C 531.433594 849.589844 664.578125 718.28125 828.542969 718.28125 C 992.324219 718.28125 1125.472656 849.589844 1128.304688 1012.714844 Z M 528.597656 1012.714844 " fill-opacity="1" fill-rule="nonzero"/></g><g clip-path="url(#f2e903a713)"><path fill="#000000" d="M 526.484375 1012.714844 C 529.320312 849.472656 662.464844 718.070312 826.429688 718.070312 C 990.210938 718.070312 1123.359375 849.472656 1126.191406 1012.714844 Z M 526.484375 1012.714844 " fill-opacity="1" fill-rule="nonzero"/></g><g fill="#000000" fill-opacity="1"><g transform="translate(239.309998, 1307.249867)"><g><path d="M 64.421875 1.9375 C 55.046875 1.9375 46.695312 -0.0820312 39.375 -4.125 C 32.050781 -8.175781 26.304688 -13.6875 22.140625 -20.65625 C 17.984375 -27.625 15.90625 -35.5625 15.90625 -44.46875 L 15.90625 -130.953125 L 24.171875 -130.953125 L 24.171875 -44.90625 C 24.171875 -37.40625 25.882812 -30.710938 29.3125 -24.828125 C 32.738281 -18.941406 37.484375 -14.3125 43.546875 -10.9375 C 49.609375 -7.570312 56.566406 -5.890625 64.421875 -5.890625 C 72.335938 -5.890625 79.3125 -7.570312 85.34375 -10.9375 C 91.375 -14.3125 96.101562 -18.941406 99.53125 -24.828125 C 102.957031 -30.710938 104.671875 -37.40625 104.671875 -44.90625 L 104.671875 -130.953125 L 112.859375 -130.953125 L 112.859375 -44.46875 C 112.859375 -35.5625 110.789062 -27.625 106.65625 -20.65625 C 102.519531 -13.6875 96.804688 -8.175781 89.515625 -4.125 C 82.222656 -0.0820312 73.859375 1.9375 64.421875 1.9375 Z M 64.421875 1.9375 "/></g></g></g><g fill="#000000" fill-opacity="1"><g transform="translate(422.789743, 1307.249867)"><g><path d="M 17.84375 0 L 17.84375 -130.953125 L 59.328125 -130.953125 C 67.523438 -130.953125 74.597656 -129.34375 80.546875 -126.125 C 86.492188 -122.90625 91.078125 -118.40625 94.296875 -112.625 C 97.523438 -106.851562 99.140625 -100.160156 99.140625 -92.546875 C 99.140625 -84.992188 97.523438 -78.375 94.296875 -72.6875 C 91.078125 -67 86.476562 -62.554688 80.5 -59.359375 C 74.53125 -56.171875 67.441406 -54.578125 59.234375 -54.578125 L 22.328125 -54.578125 L 22.328125 -62.234375 L 59.15625 -62.234375 C 65.71875 -62.234375 71.367188 -63.476562 76.109375 -65.96875 C 80.859375 -68.457031 84.519531 -71.984375 87.09375 -76.546875 C 89.675781 -81.117188 90.96875 -86.453125 90.96875 -92.546875 C 90.96875 -98.816406 89.675781 -104.25 87.09375 -108.84375 C 84.519531 -113.445312 80.859375 -117.023438 76.109375 -119.578125 C 71.367188 -122.128906 65.6875 -123.40625 59.0625 -123.40625 L 26.015625 -123.40625 L 26.015625 0 Z M 94.578125 0 L 62.671875 -59.421875 L 71.890625 -59.421875 L 103.96875 0 Z M 94.578125 0 "/></g></g></g><g fill="#000000" fill-opacity="1"><g transform="translate(588.779256, 1307.249867)"><g><path d="M 17.84375 0 L 17.84375 -130.953125 L 92.015625 -130.953125 L 92.015625 -123.40625 L 26.015625 -123.40625 L 26.015625 -69.171875 L 85.6875 -69.171875 L 85.6875 -61.609375 L 26.015625 -61.609375 L 26.015625 0 Z M 17.84375 0 "/></g></g></g><g fill="#000000" fill-opacity="1"><g transform="translate(747.034417, 1307.249867)"><g><path d="M 66.890625 1.765625 C 55.929688 1.765625 46.257812 -1.03125 37.875 -6.625 C 29.5 -12.226562 22.953125 -20.082031 18.234375 -30.1875 C 13.515625 -40.300781 11.15625 -52.035156 11.15625 -65.390625 C 11.15625 -78.867188 13.53125 -90.644531 18.28125 -100.71875 C 23.03125 -110.800781 29.578125 -118.65625 37.921875 -124.28125 C 46.273438 -129.90625 55.929688 -132.71875 66.890625 -132.71875 C 77.785156 -132.71875 87.421875 -129.90625 95.796875 -124.28125 C 104.179688 -118.65625 110.71875 -110.800781 115.40625 -100.71875 C 120.09375 -90.644531 122.4375 -78.867188 122.4375 -65.390625 C 122.4375 -51.972656 120.09375 -40.222656 115.40625 -30.140625 C 110.71875 -20.066406 104.179688 -12.226562 95.796875 -6.625 C 87.421875 -1.03125 77.785156 1.765625 66.890625 1.765625 Z M 66.890625 -6.0625 C 76.085938 -6.0625 84.257812 -8.492188 91.40625 -13.359375 C 98.550781 -18.222656 104.160156 -25.09375 108.234375 -33.96875 C 112.304688 -42.84375 114.34375 -53.316406 114.34375 -65.390625 C 114.34375 -77.515625 112.304688 -88.03125 108.234375 -96.9375 C 104.160156 -105.84375 98.550781 -112.726562 91.40625 -117.59375 C 84.257812 -122.457031 76.085938 -124.890625 66.890625 -124.890625 C 57.691406 -124.890625 49.5 -122.472656 42.3125 -117.640625 C 35.132812 -112.804688 29.492188 -105.9375 25.390625 -97.03125 C 21.296875 -88.125 19.25 -77.578125 19.25 -65.390625 C 19.25 -53.378906 21.285156 -42.9375 25.359375 -34.0625 C 29.429688 -25.1875 35.054688 -18.300781 42.234375 -13.40625 C 49.410156 -8.507812 57.628906 -6.0625 66.890625 -6.0625 Z M 66.890625 -6.0625 "/></g></g></g><g fill="#000000" fill-opacity="1"><g transform="translate(935.436013, 1307.249867)"><g><path d="M 17.84375 0 L 17.84375 -130.953125 L 59.328125 -130.953125 C 67.523438 -130.953125 74.597656 -129.34375 80.546875 -126.125 C 86.492188 -122.90625 91.078125 -118.40625 94.296875 -112.625 C 97.523438 -106.851562 99.140625 -100.160156 99.140625 -92.546875 C 99.140625 -84.992188 97.523438 -78.375 94.296875 -72.6875 C 91.078125 -67 86.476562 -62.554688 80.5 -59.359375 C 74.53125 -56.171875 67.441406 -54.578125 59.234375 -54.578125 L 22.328125 -54.578125 L 22.328125 -62.234375 L 59.15625 -62.234375 C 65.71875 -62.234375 71.367188 -63.476562 76.109375 -65.96875 C 80.859375 -68.457031 84.519531 -71.984375 87.09375 -76.546875 C 89.675781 -81.117188 90.96875 -86.453125 90.96875 -92.546875 C 90.96875 -98.816406 89.675781 -104.25 87.09375 -108.84375 C 84.519531 -113.445312 80.859375 -117.023438 76.109375 -119.578125 C 71.367188 -122.128906 65.6875 -123.40625 59.0625 -123.40625 L 26.015625 -123.40625 L 26.015625 0 Z M 94.578125 0 L 62.671875 -59.421875 L 71.890625 -59.421875 L 103.96875 0 Z M 94.578125 0 "/></g></g></g><g fill="#000000" fill-opacity="1"><g transform="translate(1101.425504, 1307.249867)"><g><path d="M 17.84375 0 L 17.84375 -130.953125 L 29.359375 -130.953125 L 70.3125 -33.75 C 71.132812 -31.8125 72 -29.6875 72.90625 -27.375 C 73.8125 -25.0625 74.734375 -22.675781 75.671875 -20.21875 C 76.609375 -17.757812 77.515625 -15.3125 78.390625 -12.875 C 79.273438 -10.445312 80.15625 -8.085938 81.03125 -5.796875 L 78.40625 -5.796875 C 79.21875 -8.023438 80.078125 -10.335938 80.984375 -12.734375 C 81.898438 -15.140625 82.828125 -17.585938 83.765625 -20.078125 C 84.703125 -22.566406 85.625 -24.984375 86.53125 -27.328125 C 87.4375 -29.671875 88.300781 -31.8125 89.125 -33.75 L 129.90625 -130.953125 L 141.421875 -130.953125 L 141.421875 0 L 133.328125 0 L 133.328125 -91.578125 C 133.328125 -94.046875 133.328125 -96.640625 133.328125 -99.359375 C 133.328125 -102.085938 133.351562 -104.882812 133.40625 -107.75 C 133.46875 -110.625 133.515625 -113.492188 133.546875 -116.359375 C 133.578125 -119.234375 133.59375 -122.050781 133.59375 -124.8125 L 135 -124.8125 C 133.882812 -121.820312 132.769531 -118.832031 131.65625 -115.84375 C 130.539062 -112.851562 129.425781 -109.9375 128.3125 -107.09375 C 127.207031 -104.25 126.125 -101.523438 125.0625 -98.921875 C 124.007812 -96.316406 123.015625 -93.867188 122.078125 -91.578125 L 83.328125 0 L 75.9375 0 L 37.09375 -91.578125 C 36.15625 -93.804688 35.15625 -96.222656 34.09375 -98.828125 C 33.039062 -101.441406 31.957031 -104.164062 30.84375 -107 C 29.738281 -109.84375 28.613281 -112.757812 27.46875 -115.75 C 26.320312 -118.738281 25.164062 -121.757812 24 -124.8125 L 25.484375 -124.8125 C 25.546875 -122.164062 25.59375 -119.421875 25.625 -116.578125 C 25.65625 -113.742188 25.679688 -110.875 25.703125 -107.96875 C 25.734375 -105.070312 25.765625 -102.242188 25.796875 -99.484375 C 25.828125 -96.734375 25.84375 -94.097656 25.84375 -91.578125 L 25.84375 0 Z M 17.84375 0 "/></g></g></g></svg>